<svg width="19" height="18" viewBox="0 0 19 18" fill="none" xmlns="http://www.w3.org/2000/svg">
<path d="M15.0491 15.75C13.4271 15.75 11.8461 15.3905 10.306 14.6715C8.76553 13.953 7.4013 13.003 6.21334 11.8215C5.02489 10.6405 4.0693 9.28425 3.34657 7.75275C2.62334 6.22175 2.26172 4.65 2.26172 3.0375C2.26172 2.8125 2.33716 2.625 2.48804 2.475C2.63893 2.325 2.82753 2.25 3.05385 2.25H6.10924C6.28527 2.25 6.44244 2.30625 6.58075 2.41875C6.71905 2.53125 6.80078 2.675 6.82593 2.85L7.3163 5.475C7.34145 5.65 7.33843 5.80925 7.30725 5.95275C7.27556 6.09675 7.20314 6.225 7.08997 6.3375L5.27938 8.175C5.80747 9.075 6.46758 9.91875 7.25972 10.7062C8.05185 11.4937 8.92572 12.175 9.88131 12.75L11.6542 10.9875C11.7673 10.875 11.9152 10.7905 12.0978 10.734C12.2798 10.678 12.4589 10.6625 12.6349 10.6875L15.2377 11.2125C15.4137 11.25 15.5583 11.3342 15.6714 11.4653C15.7846 11.5967 15.8412 11.75 15.8412 11.925V14.9625C15.8412 15.1875 15.7657 15.375 15.6149 15.525C15.464 15.675 15.2754 15.75 15.0491 15.75Z" fill="white"/>
</svg>
