<svg width="25" height="24" viewBox="0 0 25 24" fill="none" xmlns="http://www.w3.org/2000/svg">
<path d="M20.0303 5.32201C20.22 5.32359 20.4057 5.37673 20.5673 5.47569C20.7288 5.57465 20.86 5.71565 20.9467 5.88343C21.0334 6.0512 21.0723 6.23937 21.0592 6.42755C21.0461 6.61573 20.9814 6.79675 20.8722 6.95102L19.8241 8.43201C19.7597 13.518 18.0487 16.971 14.7383 18.696C13.1608 19.4754 11.4179 19.8661 9.65659 19.835C7.47871 19.8848 5.32657 19.3589 3.42009 18.311C3.29184 18.2253 3.19272 18.103 3.13579 17.9602C3.07887 17.8174 3.06682 17.6608 3.10122 17.511C3.13343 17.359 3.21124 17.2203 3.32437 17.1132C3.43751 17.0061 3.58066 16.9356 3.73493 16.911C5.01567 16.7332 6.27685 16.4366 7.50198 16.025C2.01185 13.5 3.20885 7.82401 3.73191 6.08101C3.7829 5.90797 3.87878 5.7513 4.00993 5.62674C4.14107 5.50218 4.30287 5.4141 4.47907 5.37134C4.65528 5.32859 4.8397 5.33266 5.01382 5.38315C5.18794 5.43365 5.34564 5.52878 5.47109 5.65901C7.07813 7.30524 9.20889 8.3476 11.5014 8.60901C11.4607 7.99655 11.5559 7.38269 11.7803 6.81087C12.0047 6.23906 12.3528 5.72327 12.8 5.30002C13.5746 4.56918 14.6029 4.16341 15.6708 4.16714C16.7387 4.17086 17.7641 4.5838 18.5335 5.32002L20.0303 5.32201ZM4.54769 17.794C6.42065 18.666 10.8103 19.613 14.2716 17.81C17.244 16.261 18.7739 13.078 18.8192 8.34901C18.8212 8.19264 18.8711 8.04058 18.962 7.91302L20.0494 6.37502L20.0082 6.32202C19.4871 6.31502 18.9731 6.30802 18.449 6.32202C18.2447 6.31736 18.0491 6.23879 17.8988 6.10101C17.3198 5.5175 16.5336 5.18309 15.7092 5.16962C14.8848 5.15616 14.088 5.46472 13.49 6.02901C13.1059 6.39218 12.8188 6.8447 12.6546 7.34575C12.4904 7.84681 12.4543 8.38061 12.5495 8.89901C12.567 8.99559 12.5622 9.09486 12.5353 9.18929C12.5085 9.28372 12.4604 9.37084 12.3946 9.44402C12.3316 9.51784 12.2513 9.57514 12.1608 9.61088C12.0703 9.64663 11.9724 9.65972 11.8756 9.64901C9.17297 9.46152 6.6353 8.28808 4.74987 6.35402C4.07593 8.43202 3.22092 13.448 8.64165 15.419C8.75572 15.4597 8.85573 15.532 8.92987 15.6273C9.004 15.7226 9.04919 15.837 9.06009 15.957C9.07236 16.0752 9.05049 16.1944 8.99704 16.3007C8.9436 16.4069 8.86079 16.4959 8.75833 16.557C7.43371 17.1992 6.01064 17.6172 4.54769 17.794Z" fill="white"/>
</svg>
